<?xml version="1.0" standalone="no"?><!DOCTYPE svg PUBLIC "-//W3C//DTD SVG 1.1//EN" "http://www.w3.org/Graphics/SVG/1.1/DTD/svg11.dtd"><svg t="1551267683376" class="icon" style="" viewBox="0 0 1024 1024" version="1.1" xmlns="http://www.w3.org/2000/svg" p-id="10573" xmlns:xlink="http://www.w3.org/1999/xlink" width="200" height="200"><defs><style type="text/css">.col{fill: #e52e2d;}</style></defs><path class="col" d="M917.126924 64.644299l-812.505122 0c-22.605857 0-40.932248 18.326391-40.932248 40.932248l0 812.505122c0 22.605857 18.326391 40.932248 40.932248 40.932248l812.505122 0c22.605857 0 40.932248-18.326391 40.932248-40.932248l0-812.505122C958.059172 82.97069 939.732781 64.644299 917.126924 64.644299zM789.223882 552.661072 552.761356 552.661072l0 236.462526c0 22.852474-18.591427 41.443901-41.443901 41.443901s-41.443901-18.591427-41.443901-41.443901L469.873554 552.661072 233.410004 552.661072c-22.852474 0-41.443901-18.591427-41.443901-41.443901s18.591427-41.443901 41.443901-41.443901l236.462526 0L469.87253 233.30972c0-22.852474 18.591427-41.443901 41.443901-41.443901s41.443901 18.591427 41.443901 41.443901l0 236.462526 236.462526 0c22.852474 0 41.443901 18.591427 41.443901 41.443901S812.076356 552.661072 789.223882 552.661072z" p-id="10574"></path></svg>